HIERARCHY
ROOT hip
{
	OFFSET 0.000000 0.000000 0.000000 
	CHANNELS 6 Xposition Yposition Zposition Xrotation Zrotation Yrotation
	JOINT abdomen
	{
		OFFSET 0.000000 3.402643 0.000000 
		CHANNELS 3 Xrotation Zrotation Yrotation
		JOINT chest
		{
			OFFSET 0.000000 8.438565 -0.680529 
			CHANNELS 3 Xrotation Zrotation Yrotation
			JOINT neck
			{
				OFFSET 0.000000 10.207942 -0.272212 
				CHANNELS 3 Xrotation Zrotation Yrotation
				JOINT head
				{
					OFFSET 0.000000 3.130431 0.000000 
					CHANNELS 3 Xrotation Zrotation Yrotation
					End Site
					{
						OFFSET 0.000000 3.130435 0.000000 
					}
				}
			}
			JOINT lCollar
			{
				OFFSET 3.470700 6.669187 -0.816635 
				CHANNELS 3 Yrotation Zrotation Xrotation
				JOINT lShldr
				{
					OFFSET 3.198488 0.000000 0.000000 
					CHANNELS 3 Zrotation Yrotation Xrotation
					JOINT lForeArm
					{
						OFFSET 10.139888 0.000000 0.000000 
						CHANNELS 3 Yrotation Zrotation Xrotation
						JOINT lHand
						{
							OFFSET 8.370511 0.000000 0.000000 
							CHANNELS 3 Zrotation Yrotation Xrotation
							End Site
							{
								OFFSET 4.083176 0.000000 0.000000 
							}
						}
					}
				}
			}
			JOINT rCollar
			{
				OFFSET -3.470700 6.669187 -0.816635 
				CHANNELS 3 Yrotation Zrotation Xrotation
				JOINT rShldr
				{
					OFFSET -3.198488 0.000000 0.000000 
					CHANNELS 3 Zrotation Yrotation Xrotation
					JOINT rForeArm
					{
						OFFSET -10.139888 0.000000 0.000000 
						CHANNELS 3 Yrotation Zrotation Xrotation
						JOINT rHand
						{
							OFFSET -8.370511 0.000000 0.000000 
							CHANNELS 3 Zrotation Yrotation Xrotation
							End Site
							{
								OFFSET -4.083176 0.000000 0.000000 
							}
						}
					}
				}
			}
		}
	}
	JOINT lThigh
	{
		OFFSET 5.308129 -1.633274 1.361059 
		CHANNELS 3 Xrotation Zrotation Yrotation
		JOINT lShin
		{
			OFFSET -2.041588 -20.007561 0.000000 
			CHANNELS 3 Xrotation Zrotation Yrotation
			JOINT lFoot
			{
				OFFSET 0.000000 -19.190928 -1.224953 
				CHANNELS 3 Xrotation Yrotation Zrotation
				End Site
				{
					OFFSET 0.000000 -2.449906 4.627600 
				}
			}
		}
	}
	JOINT rThigh
	{
		OFFSET -5.308129 -1.633274 1.361059 
		CHANNELS 3 Xrotation Zrotation Yrotation
		JOINT rShin
		{
			OFFSET 2.041588 -20.007561 0.000000 
			CHANNELS 3 Xrotation Zrotation Yrotation
			JOINT rFoot
			{
				OFFSET 0.000000 -19.190928 -1.224953 
				CHANNELS 3 Xrotation Yrotation Zrotation
				End Site
				{
					OFFSET 0.000000 -2.449906 4.627600 
				}
			}
		}
	}
}
MOTION
Frames: 18
Frame Time: 0.016667
-35.044697 35.886333 157.681122 -6.124300 1.155480 -72.643501 -20.786100 0.940270 4.459120 12.420700 2.967930 2.056430 3.247238 -15.325585 -10.236289 6.991990 8.283620 -8.115660 2.000000 -2.000000 0.000000 -76.050499 37.104099 -152.578995 104.130997 -0.179086 0.151855 0.137600 -0.145559 157.951004 -2.000000 2.000000 0.000000 13.774000 64.040497 129.949997 -19.463100 0.343752 0.045556 -0.057691 -0.032346 -125.291000 2.282337 0.628595 -9.416330 39.104977 5.147937 2.307423 -24.471640 26.604815 11.909314 -47.316002 -16.287956 1.160400 62.678406 -1.081456 -4.023348 -14.504934 10.703494 3.461331 
-35.021889 35.857464 157.585632 -5.822630 1.612730 -72.078400 -21.078199 0.990386 4.118970 12.055700 3.351530 1.872680 3.167152 -15.691825 -9.583474 6.929600 7.942820 -8.248660 2.000000 -2.000000 0.000000 -75.943001 37.113899 -152.529999 104.101997 -0.179158 0.151874 0.135992 -0.144802 158.585999 -2.000000 2.000000 0.000000 13.941600 64.118202 130.203995 -19.394800 0.343806 0.045403 -0.057501 -0.031408 -125.633003 1.495587 1.096586 -9.563626 39.197132 5.040580 2.310310 -24.196535 26.578045 11.920031 -47.679874 -16.444836 0.671107 62.630070 -1.073423 -4.030377 -14.456343 10.579574 3.433373 
-35.125240 35.855106 157.717072 -5.714020 1.136900 -72.447701 -20.880699 1.091240 4.193550 12.321100 3.199160 1.939740 3.068858 -15.702079 -10.240256 6.922360 8.225750 -8.284680 2.000000 -2.000000 0.000000 -76.001602 37.172699 -152.442001 104.140999 -0.179061 0.151849 0.135474 -0.144554 158.791000 -2.000000 2.000000 0.000000 13.931200 64.431801 129.492004 -19.052999 0.344074 0.044632 -0.057808 -0.032909 -125.085999 2.017532 0.850435 -9.960716 39.760929 5.025830 2.328530 -24.885954 27.074863 12.416850 -47.139248 -16.289906 0.606816 62.591179 -1.056484 -4.022049 -14.560247 10.841975 3.518741 
-35.157257 35.841511 157.753006 -5.430640 1.069400 -72.445396 -20.901100 1.209900 4.148420 12.320500 3.266810 1.920200 2.870157 -16.095625 -9.975370 6.842090 8.080160 -8.449470 2.000000 -2.000000 0.000000 -75.874100 37.144199 -152.061005 104.190002 -0.178940 0.151819 0.136510 -0.145049 158.380997 -2.000000 2.000000 0.000000 13.901100 64.373299 129.423004 -19.013901 0.344105 0.044544 -0.057802 -0.032882 -125.096001 1.822886 1.003462 -10.162154 40.323421 4.949092 2.383405 -25.054222 27.444721 12.677063 -46.968914 -16.090717 0.458910 62.503292 -1.064411 -4.030190 -14.576395 10.809915 3.493042 
-35.106369 35.806236 157.700226 -5.050670 1.546710 -72.031197 -21.171499 1.246720 3.884520 12.063800 3.535130 1.787330 2.825070 -16.225353 -10.486164 6.834010 8.275330 -8.539030 2.000000 -2.000000 0.000000 -75.756500 37.144798 -151.768005 104.140999 -0.179061 0.151849 0.137451 -0.145490 158.009995 -2.000000 2.000000 0.000000 13.947900 64.422997 128.867004 -18.926001 0.344173 0.044346 -0.057967 -0.033658 -124.811996 0.813996 1.465698 -10.260790 40.834343 4.790347 2.407463 -25.054222 27.362949 12.847458 -47.463737 -16.054035 0.187342 62.484257 -1.057053 -4.035781 -14.575788 10.597998 3.456057 
-35.089741 35.777702 157.755264 -4.777320 1.625200 -72.098602 -21.231400 1.309350 3.828780 12.073500 3.544870 1.766960 2.849741 -16.389664 -10.690012 6.854290 8.333670 -8.631020 2.000000 -2.000000 0.000000 -75.795502 37.086102 -151.845993 103.956001 -0.179522 0.151965 0.136560 -0.145072 158.362000 -2.000000 2.000000 0.000000 13.966700 64.452698 128.632004 -18.886900 0.344203 0.044258 -0.057697 -0.032373 -125.280998 0.332685 1.566072 -10.381127 41.661419 4.622718 2.476654 -25.493477 27.493565 13.283399 -47.606556 -15.881942 0.160796 62.425362 -1.052994 -4.026141 -14.402393 10.915396 3.452660 
-35.037842 35.738949 157.814804 -4.464960 1.742750 -72.147697 -21.291800 1.334360 3.756310 12.073800 3.506240 1.743410 2.640994 -16.600832 -10.907931 6.795880 8.421990 -8.742740 2.000000 -2.000000 0.000000 -75.707298 37.008301 -151.699005 103.819000 -0.179861 0.152048 0.136956 -0.145258 158.205002 -2.000000 2.000000 0.000000 14.159300 64.185699 130.761002 -19.453300 0.343759 0.045534 -0.056039 -0.022892 -128.718994 -0.396087 1.718102 -10.366482 42.745090 4.425352 2.541685 -25.778975 27.591406 13.704128 -47.802181 -15.644183 0.172445 62.308250 -1.053851 -4.031620 -14.310433 10.963756 3.435941 
-34.941345 35.684910 157.891190 -4.201390 1.840750 -72.224998 -21.322300 1.335460 3.703520 12.074500 3.428970 1.725610 2.566658 -16.817270 -11.324532 6.787550 8.587900 -8.861780 2.000000 -2.000000 0.000000 -75.765701 36.910599 -151.729004 103.671997 -0.180225 0.152137 0.135523 -0.144578 158.772003 -2.000000 2.000000 0.000000 13.603000 64.247902 128.417999 -18.945499 0.344158 0.044390 -0.057123 -0.029448 -126.346001 -1.307631 1.756769 -10.543824 44.262680 4.188885 2.624981 -25.664165 27.898867 13.995642 -48.064121 -15.414982 0.278507 62.210278 -1.057155 -4.027544 -14.184270 11.019040 3.428932 
-34.801373 35.627506 157.968704 -3.859550 1.899980 -72.344902 -21.322300 1.387790 3.704060 12.055700 3.351530 1.735960 2.221014 -17.154510 -11.417467 6.669490 8.637750 -9.015230 2.000000 -2.000000 0.000000 -75.725998 36.696098 -151.561996 103.574997 -0.180467 0.152196 0.134858 -0.144256 159.035004 -2.000000 2.000000 0.000000 13.170900 64.043098 128.203003 -18.955299 0.344150 0.044412 -0.056648 -0.026783 -127.311996 -2.463440 1.855164 -10.714759 46.283215 3.901777 2.755916 -25.528851 27.926786 14.161975 -48.287426 -14.982522 0.600520 62.053349 -1.060856 -4.016766 -13.964220 10.909251 3.344603 
-34.619160 35.558754 158.065323 -3.556690 1.920130 -72.492302 -21.273100 1.403740 3.718810 12.095800 3.235960 1.755450 1.871405 -17.415165 -11.585257 6.541680 8.707160 -9.138760 2.000000 -2.000000 0.000000 -75.461304 36.354900 -151.278000 103.555000 -0.180516 0.152208 0.133975 -0.143823 159.386993 -2.000000 2.000000 0.000000 12.738600 63.711201 128.113998 -19.306900 0.343875 0.045205 -0.055828 -0.021376 -129.266006 -3.715013 1.836782 -11.139166 48.556271 3.595215 2.903448 -25.009130 27.975805 14.177412 -48.492073 -14.563015 1.030101 61.847984 -1.068112 -4.019504 -13.676908 10.808785 3.248992 
-34.394142 35.490791 158.177643 -3.331930 1.910830 -72.630699 -21.194000 1.429950 3.761010 12.106200 3.158760 1.777230 1.513199 -17.709568 -12.088229 6.424980 8.922820 -9.294120 2.000000 -2.000000 0.000000 -74.990799 35.896999 -150.729996 103.584999 -0.180443 0.152190 0.133460 -0.143567 159.591995 -2.000000 2.000000 0.000000 12.455400 63.309898 128.738998 -20.000200 0.343319 0.046763 -0.054659 -0.009156 -133.649994 -5.101546 1.610439 -11.870104 51.120075 3.277711 3.065558 -24.259029 27.955580 13.997968 -48.749062 -14.117923 1.671639 61.631973 -1.090965 -4.011905 -13.355853 10.461782 3.075086 
-34.125206 35.421928 158.314697 -2.999680 1.891940 -72.804100 -21.136801 1.523310 3.704030 12.096300 3.168340 1.755730 1.249306 -17.974836 -12.407750 6.347230 9.079600 -9.426960 2.000000 -2.000000 0.000000 -74.862701 35.516899 -150.382004 103.574997 -0.180467 0.152196 0.132532 -0.143100 159.962997 -2.000000 2.000000 0.000000 12.114600 62.927799 129.587997 -20.976801 0.342503 0.048946 -0.054442 0.003719 -138.250000 -6.604709 1.377876 -12.772826 53.942081 2.978114 3.204882 -23.644648 27.565065 13.659232 -48.978970 -13.683805 2.209462 61.298058 -1.114456 -3.989889 -12.804326 10.365868 2.945229 
-33.814476 35.353401 158.503433 -2.618740 1.970600 -72.931900 -21.070000 1.573470 3.643030 12.234200 3.053500 1.750920 0.858154 -18.324600 -12.485754 6.209100 9.119770 -9.583790 2.000000 -2.000000 0.000000 -74.362999 35.010201 -149.843994 103.740997 -0.180055 0.152096 0.133264 -0.143470 159.669998 -2.000000 2.000000 0.000000 11.852000 62.379101 130.759003 -22.265900 0.341370 0.051805 -0.055002 0.013903 -141.891998 -8.287734 0.962475 -13.926088 56.703602 2.671401 3.370877 -22.823061 27.209038 13.251565 -49.221401 -13.238403 2.904341 60.768044 -1.155855 -3.965694 -12.197669 10.095645 2.721536 
-33.456120 35.278358 158.739349 -2.432580 1.590360 -73.114403 -20.884199 1.620460 3.657140 12.196500 2.869620 1.766010 0.526746 -18.698580 -12.803700 6.081520 9.247640 -9.765440 2.000000 -2.000000 0.000000 -73.784897 34.317799 -149.384003 103.917000 -0.179618 0.151989 0.134711 -0.144184 159.093994 -2.000000 2.000000 0.000000 11.578600 61.732899 131.832001 -23.603800 0.340126 0.054745 -0.055473 0.018527 -143.552994 -9.330210 0.288446 -15.144115 59.163994 2.431577 3.481975 -21.818291 27.103821 12.777492 -49.043053 -12.906487 3.651665 60.208015 -1.225064 -3.947893 -11.555645 9.962573 2.523387 
-33.193470 35.245445 159.120163 -2.295020 0.517163 -74.747299 -20.301701 1.893940 4.277310 12.707400 2.486280 2.118620 0.194297 -19.090166 -13.128683 5.963770 9.375420 -9.955830 2.000000 -2.000000 0.000000 -72.991203 33.381901 -148.600998 104.169998 -0.178989 0.151831 0.137749 -0.145628 157.893005 -2.000000 2.000000 0.000000 11.266800 60.792500 133.587997 -25.488600 0.338258 0.058836 -0.056065 0.023056 -145.182999 -9.005465 -0.291580 -15.114155 61.355556 2.252772 3.571451 -21.716585 27.042580 12.715133 -48.275818 -11.827819 4.731839 59.432316 -1.270620 -3.894947 -10.998087 10.331148 2.477598 
-32.697613 35.152092 159.312271 -1.933710 0.624644 -74.776901 -20.328300 2.012080 4.035370 12.539300 2.785050 2.000930 -0.116084 -19.426672 -13.475777 5.836030 9.503250 -10.128800 2.000000 -2.000000 0.000000 -72.001999 32.152699 -147.973007 104.335999 -0.178577 0.151726 0.136140 -0.144873 158.528000 -2.000000 2.000000 0.000000 11.277900 61.017200 133.569000 -26.758101 0.336924 0.061556 -0.056355 0.024975 -145.876999 -10.518822 -0.654946 -16.373291 63.166374 2.050358 3.667156 -20.745480 26.556641 12.133217 -48.595806 -11.430804 5.437314 58.616657 -1.352688 -3.852529 -10.076444 9.979888 2.189119 
-32.149963 35.064133 159.531342 -1.572390 0.732146 -74.883400 -20.357700 2.107400 3.676750 12.419000 3.180610 1.801460 -0.401992 -19.635416 -13.849854 5.708420 9.660330 -10.242900 2.000000 -2.000000 0.000000 -71.139801 30.708401 -147.447998 104.581001 -0.177973 0.151571 0.134711 -0.144184 159.093994 -2.000000 2.000000 0.000000 10.870400 59.967800 136.203003 -29.863600 0.333411 0.068079 -0.060374 0.043373 -152.604996 -11.948814 -1.035690 -17.636894 65.307808 1.864701 3.752367 -20.564672 26.057365 11.685760 -48.925442 -11.075562 6.164506 57.733204 -1.414139 -3.809191 -8.951749 9.743412 1.880707 
-31.537609 35.004143 159.778488 -1.093890 0.917802 -74.958900 -20.403500 2.212700 3.428440 12.329100 3.411870 1.675230 -0.567297 -20.004974 -14.132026 5.629710 9.738960 -10.439400 2.000000 -2.000000 0.000000 -69.865997 28.630400 -146.427994 104.755997 -0.177538 0.151457 0.135252 -0.144447 158.878998 -2.000000 2.000000 0.000000 11.224200 59.662899 137.451996 -32.773800 0.329802 0.074011 -0.075719 0.059779 -158.796997 -13.491261 -1.425968 -19.082653 67.161934 1.735303 3.804711 -20.168823 25.879232 11.293880 -49.222599 -10.576753 7.036622 56.544441 -1.518531 -3.748152 -7.652856 9.212675 1.535231 
